<svg version="1.1" xmlns="http://www.w3.org/2000/svg" xmlns:xlink="http://www.w3.org/1999/xlink" width="647.86672" height="152.11372" viewBox="0,0,647.86672,152.11372"><g transform="translate(95.2547,-103.69702)"><g data-paper-data="{&quot;isPaintingLayer&quot;:true}" fill-rule="nonzero" stroke="none" stroke-width="0.5" stroke-linecap="butt" stroke-linejoin="miter" stroke-miterlimit="10" stroke-dasharray="" stroke-dashoffset="0" style="mix-blend-mode: normal"><path d="M-4.03315,124.23811c0,4.35409 -4.35409,4.35409 -4.35409,4.35409l-1.72315,-0.08455c-8.97589,1.75409 -18.22699,1.24511 -27.26621,3.19344c1.09032,13.35886 -1.76159,25.70783 -1.80579,39.02186c-0.0348,10.47962 3.31475,20.47708 3.36548,30.82701l0.39934,-0.22916c0,0 1.9472,3.89442 -1.9472,5.84162c-3.89442,1.9472 -5.84162,-1.9472 -5.84162,-1.9472l-1.3187,-3.66526c0.06106,-10.29441 -3.40504,-20.38961 -3.36543,-30.85803c0.04671,-12.3467 2.64633,-23.83588 1.99025,-36.1091c-5.13861,2.2921 -10.02531,5.16812 -15.43847,6.73545c-10.34793,2.99614 -20.83795,-0.62462 -30.71062,-3.44437c0,0 -4.18656,-1.19616 -2.9904,-5.38272c1.19616,-4.18657 5.38271,-2.99041 5.38271,-2.99041c8.10408,2.3163 17.44042,6.0338 25.98473,3.4278c8.07379,-2.46248 14.99495,-7.49886 23.34516,-9.48847c9.4233,-2.24528 19.17692,-1.55302 28.50893,-3.47154l3.43097,-0.08455c0,0 4.3541,0 4.3541,4.35409z" fill="#ffffff"/><path d="M72.01321,199.84976c2.34238,-0.74448 4.28529,1.19843 4.28529,1.19843l-3.59667,8.06848c-13.32745,-4.48114 -29.16085,-2.19192 -41.39342,-9.59845c-1.18351,-0.7166 -2.50282,-1.31085 -3.78846,-1.94372c0.00241,0.00714 0.0048,0.01432 0.00721,0.02149c1.37689,4.13065 -2.75377,5.50754 -2.75377,5.50754l-7.36801,1.86028c-0.83541,-0.69596 -5.44404,-3.8847 -8.28815,-7.25271c-3.62307,4.78504 -8.04309,8.49422 -14.37337,10.53434c-9.78255,3.15269 -16.82038,-3.48068 -16.05374,-14.00136c0.3732,-5.12139 5.50176,-11.74847 8.47893,-15.78734c1.87794,-2.54763 3.21555,-5.65825 5.7466,-7.55848c2.88436,-2.16547 6.67502,-5.72506 9.95833,-4.23218c3.2857,1.49396 2.24499,6.86083 3.36749,10.29125c0,0 0.54006,4.32046 -3.78042,4.86052c-3.05545,0.38194 -4.22017,-1.66707 -4.64029,-2.8997c-1.13575,1.60659 -2.46364,3.08898 -3.62392,4.6808c-1.97684,2.71211 -6.19734,7.98691 -6.84186,11.51254c-0.78588,4.29888 1.22714,6.37838 4.56276,4.89709c6.00668,-2.66745 9.67204,-5.63046 12.84497,-11.30336l1.58611,-4.75831c0.54717,-1.77919 2.20376,-3.07245 4.1624,-3.07245c1.86895,0 3.46288,1.17753 4.08034,2.83118l1.68037,4.20094l-0.13574,0.0543c0.13151,0.24122 0.25479,0.48745 0.3686,0.73937c0.68997,1.52713 -0.85008,3.42749 -0.31978,5.01715c0.41757,1.25173 1.9296,1.80042 2.89439,2.70063l2.94023,-1.57581c0,0 0.45127,-0.15043 1.10522,-0.20268c-0.29336,-0.31428 -0.56168,-0.65301 -0.79959,-1.02131c-1.87212,-2.89824 -2.10355,-6.86156 -1.44833,-10.24908c2.21219,-11.43703 16.96528,-11.91617 25.71312,-11.94393c0,0 4.35409,0 4.35409,4.35409c0,4.35409 -4.35409,4.35409 -4.35409,4.35409c-4.57758,-0.01691 -11.47447,-0.6277 -15.24589,2.4218c-1.28066,1.03551 -3.48989,4.44716 -1.72228,6.30995c1.53548,1.61816 3.97419,2.02756 5.95126,3.06067c1.31461,0.68694 2.5148,1.63482 3.92347,2.0993c10.52125,3.46917 21.76241,3.06585 32.51662,5.82466z" fill="#ffffff"/><path d="M85.08413,173.87454c1.47628,0.98418 1.94993,2.16889 1.99295,3.22727c4.81086,-2.2754 10.16181,-3.89399 14.23136,-3.95085c3.84074,-0.05366 8.34201,-0.64628 11.40065,1.67725c3.22192,2.44759 4.60367,6.95725 5.22799,10.95496c0.7599,4.86577 -4.08716,12.45827 -7.79744,14.99427c-9.26255,6.33103 -24.80921,5.3594 -32.46726,-3.23445c-0.26555,-0.29799 -0.53433,-0.63089 -0.80177,-0.99275c-0.80972,0.04235 -1.73662,-0.18578 -2.74562,-0.90649c-3.54306,-2.53077 -1.0123,-6.07383 -1.0123,-6.07383c0.09722,-0.13268 0.193,-0.26665 0.28759,-0.4017c-0.41891,-1.73152 -0.52932,-3.43041 -0.14264,-4.85343c0.90153,-3.31764 3.64315,-5.83142 5.46475,-8.74713l0.3237,-0.48553c0,0 2.41522,-3.62284 6.03804,-1.20762zM83.36218,190.77674c1.26051,1.62566 2.89796,3.03807 3.81624,3.43534c6.50781,2.81541 22.63736,3.17736 22.07179,-7.82014c-0.298,-5.79446 -2.46194,-5.12608 -7.42393,-4.54819c-7.23164,0.84222 -13.64415,3.969 -18.4641,8.93299z" fill="#ffffff"/><path d="M180.94158,204.56919c-2.16024,3.78042 -5.94065,1.62018 -5.94065,1.62018l-6.49581,-3.75627c-2.69711,-2.71272 -5.19192,-4.66557 -6.64035,-7.88654c-0.00103,0.00159 -0.00206,0.00319 -0.00308,0.00477c-1.31819,2.04285 -10.14834,9.51158 -11.0797,10.30969c-1.53278,1.31348 -10.46633,9.08321 -12.32027,8.77397c-13.05996,-2.1784 -8.97335,-13.19927 -7.7011,-21.30333c1.32336,-8.42968 6.52978,-15.56959 15.37168,-18.22151c2.43726,-0.731 5.06137,0.52994 7.59207,0.79492c0,0 2.36653,0.33807 3.34202,2.26676c-0.63897,-4.99129 -2.35841,-10.0558 -2.29816,-15.20843c0.03469,-2.96681 0.38031,-5.91506 0.76296,-8.86199c-0.81851,-4.93596 -0.71834,-9.75682 1.52698,-14.15115c0.09551,-0.94968 0.19103,-1.89937 0.28654,-2.84905v-4.99097c0,-2.4047 1.94939,-4.35409 4.35409,-4.35409c2.4047,0 4.35409,1.9494 4.35409,4.35409v7.73118h-0.09502c0.0252,0.15785 0.04824,0.31621 0.06902,0.4751c0.16197,1.2389 -0.19515,2.44461 -0.62448,3.65124c-0.0745,0.7492 -0.14902,1.4984 -0.22352,2.24758c-0.13522,2.03179 -0.3768,4.05593 -0.63678,6.07842c0.14317,1.07088 0.33058,2.13801 0.5153,3.19694c1.30771,7.49736 4.63249,14.98296 5.26939,22.57759c0.3513,4.18911 -1.31126,8.39556 -0.90034,12.57923c0.22066,2.24657 2.95781,4.47226 4.36446,5.8651l5.53048,3.11589c0,0 3.78042,2.16024 1.62018,5.94066zM157.30067,180.43821c-0.91544,3.64359 -4.80784,3.08752 -4.80784,3.08752c-7.12334,-1.48295 -12.24011,3.09422 -13.11511,10.06206c-0.28765,2.29056 -0.41331,4.60705 -0.85903,6.87217c-0.28751,1.46111 -1.36102,4.99866 0.03007,4.46728c0.89544,-0.34204 0.82559,-1.77142 1.49774,-2.45482c1.54574,-1.57163 3.40611,-2.79972 5.08045,-4.23359c3.24939,-2.7827 7.18195,-5.01713 9.5368,-8.58877c2.00814,-3.04579 2.65509,-6.11519 2.63691,-9.21186z" fill="#ffffff"/><path d="M235.60994,207.61028c-3.48327,2.61246 -6.09573,-0.87081 -6.09573,-0.87081l-3.13646,-4.43148c-0.11432,-0.29818 -0.22478,-0.5925 -0.33111,-0.88334c-2.24145,4.0581 -5.62017,7.38398 -10.37747,8.71602c-5.82475,1.63094 -14.53115,-7.62215 -16.68405,-11.90578c-3.58915,-7.14133 -3.05802,-18.10844 -1.09896,-25.36978c0,0 1.19616,-4.18656 5.38272,-2.9904c4.18657,1.19616 2.99041,5.38272 2.99041,5.38272c-1.63235,5.30659 -1.9696,14.07413 0.61908,19.2993c1.12403,2.2688 4.15011,4.31002 5.97675,5.8083c0.47099,0.38633 0.8495,1.46191 1.39176,1.18438c4.80048,-2.45694 6.75023,-8.92731 6.66587,-13.74381h-0.00059v-6.01314c0,-2.4047 1.94939,-4.35409 4.35409,-4.35409c1.73817,0 3.23846,1.01849 3.93661,2.49125l3.39389,6.7878l-0.1257,0.06286c0.16638,0.28806 0.32309,0.58246 0.4689,0.88401c1.67024,3.45431 0.02482,7.87728 1.5231,11.40958l2.01767,2.4407c0,0 2.61246,3.48327 -0.87082,6.09573z" fill="#ffffff"/><path d="M278.12489,191.01252c1.9472,3.89442 -1.9472,5.84162 -1.9472,5.84162l-5.52287,2.74055c-1.52632,0.12463 -3.14642,0.64759 -4.73812,1.04991c-1.58428,6.88101 -3.93913,13.38284 -12.5838,14.67012c-9.52604,1.41853 -13.34797,-8.46603 -14.34863,-15.80987c-0.93676,-6.87486 3.48291,-16.9722 8.74317,-21.31148c1.8159,-1.49796 4.59252,-1.03653 6.88878,-1.55479c0,0 0.69373,-0.11562 1.57002,0.02489c-0.43595,-1.5797 -0.77445,-3.17928 -0.89837,-4.82013c-0.65411,-8.66207 0.8564,-17.10096 0.86536,-25.69977l0.22897,-0.39174l-0.16559,-0.03313l0.8432,-4.21601c0.36552,-2.03505 2.14511,-3.57927 4.28535,-3.57927c1.86895,0 3.46288,1.17754 4.08034,2.83119l1.68036,4.20093l-0.16646,0.06659c0.17019,0.33232 0.32048,0.67569 0.44694,1.03225c1.06179,2.994 -2.07473,10.3672 -2.62364,13.36248c-1.40681,7.67663 0.46554,14.5192 1.66157,22.03987c0.96093,3.05587 1.83434,6.15588 1.84737,9.63188l4.0116,-2.02331c0,0 3.89442,-1.9472 5.84162,1.9472zM259.44537,192.00478c-0.19036,-1.16624 -0.47411,-2.31857 -0.67701,-3.48336c-0.23986,-1.37694 -0.49358,-2.75224 -0.74878,-4.1267c-0.95968,0.66488 -1.97176,0.83358 -1.97176,0.83358c-1.13983,0.05441 -2.58821,-0.6185 -3.41947,0.16325c-2.52083,2.3707 -5.5676,9.36614 -5.00117,13.04933c0.52641,3.42284 2.29375,11.6923 7.40033,6.71706c3.33011,-3.24446 1.95778,-4.32962 2.91831,-8.81117c0.31898,-1.48827 1.17147,-2.87047 1.49953,-4.34198z" fill="#ffffff"/><path d="M322.3946,209.28112c0,4.35409 -4.35409,4.35409 -4.35409,4.35409h-1.71803c-11.7031,-0.02017 -23.7362,3.99958 -30.45436,-9.14549c-1.17531,-2.29968 -2.47215,-4.84335 -2.24364,-7.41584c0.85811,-9.66047 9.619,-13.31357 17.4951,-15.94785c2.51025,-0.83959 5.10493,-2.51378 7.69414,-1.96394c12.62913,2.68191 8.85298,6.94592 2.6313,12.96379c-2.34652,2.26965 -5.07924,4.17899 -7.97794,5.68071c-1.5725,0.81467 -3.45941,0.76048 -5.18914,1.14072c0,0 -4.26954,0.85391 -5.12344,-3.41562c-0.04105,-0.20527 -0.07026,-0.40265 -0.08868,-0.59242c-0.43253,0.70999 -0.69646,1.53257 -0.74068,2.49651c-0.07902,1.72266 2.86299,5.2317 3.74622,6.05888c5.19932,4.86934 13.74129,1.44246 20.25113,1.43238h1.71803c0,0 4.35409,0 4.35409,4.35409z" fill="#ffffff"/><path d="M338.68256,217.86622c-0.8539,-4.26953 3.41563,-5.12344 3.41563,-5.12344l2.87957,-0.30536c3.85391,-5.72234 8.34895,-11.79273 13.24414,-16.65367c6.20526,-6.16184 13.84432,-10.18672 20.54091,-15.54404c5.37363,-4.29891 9.26093,-10.06431 14.43308,-14.2376l-0.47364,-0.34446l0.16515,-0.22706c-11.64605,-0.80509 -23.29531,-2.38486 -34.90198,-3.35779c-9.23473,-0.7741 -17.72576,-3.45267 -27.05961,-3.4149c0,0 -4.35409,0 -4.35409,-4.35409c0,-4.35409 4.35409,-4.3541 4.35409,-4.3541c5.95493,0.0213 11.86834,1.13398 17.73289,2.1678c5.32457,0.93862 10.69361,0.88113 16.03946,1.27671c10.0215,0.74153 19.85729,2.7917 29.8982,3.42766h6.76911c2.4047,0 4.35409,1.9494 4.35409,4.35409c0,0.9746 -0.3202,1.8744 -0.86115,2.59996l-5.09354,7.00361l-0.0016,-0.00116c-1.19583,2.05963 -2.64068,4.07196 -4.7114,6.30381c-9.04402,9.74782 -21.27235,15.53496 -30.6956,24.88229c-5.44333,5.39947 -9.81625,12.10042 -14.83965,17.90469l-5.71063,1.41268c0,0 -4.26954,0.85391 -5.12344,-3.41563z" fill="#ffffff"/><path d="M410.07308,218.32284c0.14144,1.02158 -0.10557,2.23379 -1.30316,3.45548c-3.04797,3.10934 -6.15731,0.06135 -6.15731,0.06135l-1.24658,-5.85505c4.59907,-7.79673 8.64715,-16.1008 14.98953,-22.69679c4.75944,-4.94977 11.31752,-8.29863 16.40547,-12.96563c4.31825,-3.96097 7.75906,-8.16873 12.41666,-11.54679c0.54688,-0.39663 -1.26922,0.69861 -1.93698,0.59627c-2.50933,-0.3846 -4.78233,-1.84405 -7.29976,-2.17151c-7.20531,-0.93726 -14.26473,-0.70039 -21.44692,-1.71385c0,0 -4.31032,-0.61576 -3.69457,-4.9261c0.61575,-4.31033 4.92609,-3.69457 4.92609,-3.69457c9.75637,1.4127 22.71664,-1.05886 31.38475,4.70484c2.44094,1.62305 6.37793,2.83203 6.65323,5.75037c0.29815,3.16069 -9.21668,13.21142 -11.17847,15.34807c-5.98384,6.51726 -14.09395,10.57353 -20.13083,16.83487c-5.1979,5.39115 -8.68536,12.32253 -12.38119,18.81904z" fill="#ffffff"/><path d="M511.83797,218.5659c-4.13066,1.37688 -5.50754,-2.75377 -5.50754,-2.75377l-0.14123,-1.25017c-5.63061,-8.2509 -15.36366,-1.42079 -22.07272,1.77853c-2.66194,1.26937 -5.07596,3.34086 -7.98883,3.80175c-0.05098,0.00806 -0.09975,0.01071 -0.14649,0.00838l0.01813,0.04536l-4.20342,1.68138c-0.52463,0.22406 -1.10222,0.34808 -1.70876,0.34808c-2.4047,0 -4.35409,-1.94939 -4.35409,-4.35409c0,-1.86895 1.17754,-3.46288 2.83119,-4.08034l3.56928,-1.42771c6.60086,-6.91188 14.18478,-15.52469 17.93565,-24.38521c1.23804,-2.92455 2.69619,-6.92253 -0.2904,-9.59755c-0.68827,-0.61647 -1.86985,0.09865 -2.76976,-0.11101c-0.15334,-0.03572 -10.73496,-3.56919 -10.85692,-3.62165c-1.44806,-0.62285 -2.58457,-2.01116 -4.13533,-2.29403c-1.27385,-0.23237 -2.52726,0.56546 -3.79088,0.84818c0,0 -4.29484,0.71582 -5.01065,-3.57904c-0.71582,-4.29484 3.57905,-5.01066 3.57905,-5.01066c2.17245,-0.28995 4.3521,-1.20944 6.51736,-0.86986c4.75464,0.74568 11.08889,4.64264 15.93249,6.1106c1.92622,0.58378 4.42763,0.15403 5.82045,1.60703c2.54998,2.66012 4.53097,6.162 5.11464,9.8004c0.52822,3.29271 -0.82999,6.67449 -1.96897,9.80875c-1.49605,4.11688 -3.91562,8.25715 -6.77861,12.22996c7.86505,-2.0088 15.64279,-1.08765 21.58331,5.85521l1.57681,3.90396c0,0 1.37689,4.13066 -2.75377,5.50754z" fill="#ffffff"/><path d="M548.25797,232.53365c-4.35409,0 -4.35409,-4.35409 -4.35409,-4.35409l0.22343,-0.34115c-2.31279,-7.04466 -2.1457,-13.97261 -3.58048,-21.16748c-0.92653,-4.64623 -2.33714,-9.29011 -3.30701,-13.96998c-2.15637,0.5323 -4.49788,0.54366 -6.67144,0.28789c-17.68355,-2.08077 -21.13265,-32.12091 -1.7233,-35.27744c3.29446,-0.53578 6.415,1.84668 9.62249,2.77c0,0 4.13066,1.37688 2.75377,5.50754c-1.37689,4.13065 -5.50754,2.75377 -5.50754,2.75377c-1.94663,-0.79471 -3.73815,-2.44431 -5.83988,-2.38412c-7.16345,0.2052 -6.58177,13.29004 -2.75536,16.49303c3.83383,3.20921 6.74227,2.10275 9.05567,-0.28587c0.06926,-2.39435 0.41886,-4.80483 1.16712,-7.23634c1.34604,-4.37405 3.79484,-8.3292 5.69226,-12.4938l5.2208,7.91351c0.27846,2.53671 1.27855,5.09695 0.83537,7.61013c-0.3846,2.18104 -1.96375,3.98561 -3.20376,5.8206c-0.26788,0.39643 -0.52477,0.80875 -0.77754,1.22834c-0.21863,1.27859 -0.35014,2.55622 -0.23726,3.82622c0.48224,5.42548 3.16569,10.44204 4.22568,15.78476c1.35397,6.82455 1.03889,13.42714 3.29169,20.06549l0.22343,3.09492c0,0 0,4.35409 -4.35409,4.35409z" fill="#ffffff"/><path d="M280.07277,250.34442c0,-1.38071 1.11929,-2.5 2.5,-2.5c1.38071,0 2.5,1.11929 2.5,2.5c0,1.38071 -1.11929,2.5 -2.5,2.5c-1.38071,0 -2.5,-1.11929 -2.5,-2.5z" fill="#d7d7d7"/><path d="M320.43835,243.8707c0,-1.38071 1.11929,-2.5 2.5,-2.5c1.38071,0 2.5,1.11929 2.5,2.5c0,1.38071 -1.11929,2.5 -2.5,2.5c-1.38071,0 -2.5,-1.11929 -2.5,-2.5z" fill="#d7d7d7"/><path d="M310.28369,245.57369c2.45145,0.49029 1.96116,2.94175 1.96116,2.94175l-0.63852,2.95027c-0.80297,1.11866 -1.26545,2.58875 -2.40891,3.35599c-2.6554,1.7817 -4.66777,0.74014 -7.26499,0.0863c0,0 -2.41191,-0.65779 -1.75412,-3.0697c0.6578,-2.41191 3.0697,-1.75411 3.0697,-1.75411c2.02686,0.61781 2.76247,1.37239 3.73892,-0.53189l0.35502,-2.01743c0,0 0.49029,-2.45146 2.94174,-1.96117z" fill="#d7d7d7"/><path d="M29.35003,117.62276c0,-1.38071 1.11929,-2.5 2.5,-2.5c1.38071,0 2.5,1.11929 2.5,2.5c0,1.38071 -1.11929,2.5 -2.5,2.5c-1.38071,0 -2.5,-1.11929 -2.5,-2.5z" fill="#d7d7d7"/><path d="M52.2015,106.19703c0,-1.38071 1.11929,-2.5 2.5,-2.5c1.38071,0 2.5,1.11929 2.5,2.5c0,1.38071 -1.11929,2.5 -2.5,2.5c-1.38071,0 -2.5,-1.11929 -2.5,-2.5z" fill="#d7d7d7"/><path d="M52.46663,114.26926c1.11803,2.23607 -1.11803,3.3541 -1.11803,3.3541l-0.72483,0.34083c-2.18444,1.37649 -4.86694,1.94493 -7.44044,2.1537c0,0 -2.49513,0.15595 -2.65108,-2.33919c-0.15595,-2.49513 2.33919,-2.65108 2.33919,-2.65108c1.71611,-0.06296 3.59135,-0.31183 4.97883,-1.32369l1.26226,-0.65271c0,0 2.23607,-1.11803 3.3541,1.11803z" fill="#d7d7d7"/><path d="M505.0716,129.90572c0,-1.38071 1.11929,-2.5 2.5,-2.5c1.38071,0 2.5,1.11929 2.5,2.5c0,1.38071 -1.11929,2.5 -2.5,2.5c-1.38071,0 -2.5,-1.11929 -2.5,-2.5z" fill="#d7d7d7"/><path d="M528.35607,126.48081c2.48471,-0.27608 2.76078,2.20863 2.76078,2.20863l-0.37611,3.56891c-2.7129,2.99129 -3.08395,4.64717 -8.37735,3.50985c-0.26224,-0.05634 -0.36921,-0.26947 -0.41454,-0.54844c-1.22848,1.11058 -2.71607,2.51641 -4.31356,2.2475c-4.8002,-0.80805 -4.14567,-4.37241 -4.2899,-7.37349c0,0 0,-2.5 2.5,-2.5c2.5,0 2.5,2.5 2.5,2.5c-0.51207,5.19793 0.2847,-1.19252 3.56828,-1.37124c1.1587,-0.06306 1.43255,1.92114 2.45695,2.46626c1.09849,0.58453 2.36507,-1.90032 2.52901,-2.13136l-0.7522,0.18417c0,0 -0.27607,-2.48471 2.20864,-2.76079z" fill="#d7d7d7"/><path d="M534.02985,128.21336c0,-1.38071 1.11929,-2.5 2.5,-2.5c1.38071,0 2.5,1.11929 2.5,2.5c0,1.38071 -1.11929,2.5 -2.5,2.5c-1.38071,0 -2.5,-1.11929 -2.5,-2.5z" fill="#d7d7d7"/></g></g></svg>